<?xml version="1.0" encoding="UTF-8" standalone="no"?>
<!-- Created with Inkscape (http://www.inkscape.org/) -->

<svg
   xmlns:dc="http://purl.org/dc/elements/1.1/"
   xmlns:cc="http://creativecommons.org/ns#"
   xmlns:rdf="http://www.w3.org/1999/02/22-rdf-syntax-ns#"
   xmlns:svg="http://www.w3.org/2000/svg"
   xmlns="http://www.w3.org/2000/svg"
   xmlns:sodipodi="http://sodipodi.sourceforge.net/DTD/sodipodi-0.dtd"
   xmlns:inkscape="http://www.inkscape.org/namespaces/inkscape"
   width="600.19965"
   height="720"
   id="svg3421"
   sodipodi:version="0.32"
   inkscape:version="0.48.0 r9654"
   version="1.0"
   sodipodi:docname="Escudo Chignahuapan.svg"
   inkscape:output_extension="org.inkscape.output.svg.inkscape">
  <defs
     id="defs3423">
    <inkscape:path-effect
       effect="spiro"
       id="path-effect3765"
       is_visible="true" />
    <inkscape:perspective
       sodipodi:type="inkscape:persp3d"
       inkscape:vp_x="0 : 526.18109 : 1"
       inkscape:vp_y="0 : 1000 : 0"
       inkscape:vp_z="744.09448 : 526.18109 : 1"
       inkscape:persp3d-origin="372.04724 : 350.78739 : 1"
       id="perspective3429" />
    <inkscape:perspective
       id="perspective4362"
       inkscape:persp3d-origin="372.04724 : 350.78739 : 1"
       inkscape:vp_z="744.09448 : 526.18109 : 1"
       inkscape:vp_y="0 : 1000 : 0"
       inkscape:vp_x="0 : 526.18109 : 1"
       sodipodi:type="inkscape:persp3d" />
    <inkscape:perspective
       id="perspective3219"
       inkscape:persp3d-origin="372.04724 : 350.78739 : 1"
       inkscape:vp_z="744.09448 : 526.18109 : 1"
       inkscape:vp_y="0 : 1000 : 0"
       inkscape:vp_x="0 : 526.18109 : 1"
       sodipodi:type="inkscape:persp3d" />
    <inkscape:perspective
       id="perspective2430"
       inkscape:persp3d-origin="372.04724 : 350.78739 : 1"
       inkscape:vp_z="744.09448 : 526.18109 : 1"
       inkscape:vp_y="0 : 1000 : 0"
       inkscape:vp_x="0 : 526.18109 : 1"
       sodipodi:type="inkscape:persp3d" />
    <inkscape:perspective
       sodipodi:type="inkscape:persp3d"
       inkscape:vp_x="0 : 526.18109 : 1"
       inkscape:vp_y="0 : 1000 : 0"
       inkscape:vp_z="744.09448 : 526.18109 : 1"
       inkscape:persp3d-origin="372.04724 : 350.78739 : 1"
       id="perspective7097" />
    <inkscape:perspective
       id="perspective7095"
       inkscape:persp3d-origin="372.04724 : 350.78739 : 1"
       inkscape:vp_z="744.09448 : 526.18109 : 1"
       inkscape:vp_y="0 : 1000 : 0"
       inkscape:vp_x="0 : 526.18109 : 1"
       sodipodi:type="inkscape:persp3d" />
    <inkscape:perspective
       sodipodi:type="inkscape:persp3d"
       inkscape:vp_x="0 : 526.18109 : 1"
       inkscape:vp_y="0 : 1000 : 0"
       inkscape:vp_z="744.09448 : 526.18109 : 1"
       inkscape:persp3d-origin="372.04724 : 350.78739 : 1"
       id="perspective7742" />
    <inkscape:perspective
       sodipodi:type="inkscape:persp3d"
       inkscape:vp_x="0 : 526.18109 : 1"
       inkscape:vp_y="0 : 1000 : 0"
       inkscape:vp_z="744.09448 : 526.18109 : 1"
       inkscape:persp3d-origin="372.04724 : 350.78739 : 1"
       id="perspective7740" />
    <inkscape:perspective
       id="perspective7738"
       inkscape:persp3d-origin="372.04724 : 350.78739 : 1"
       inkscape:vp_z="744.09448 : 526.18109 : 1"
       inkscape:vp_y="0 : 1000 : 0"
       inkscape:vp_x="0 : 526.18109 : 1"
       sodipodi:type="inkscape:persp3d" />
    <inkscape:perspective
       id="perspective2943"
       inkscape:persp3d-origin="0.5 : 0.33333333 : 1"
       inkscape:vp_z="1 : 0.5 : 1"
       inkscape:vp_y="0 : 1000 : 0"
       inkscape:vp_x="0 : 0.5 : 1"
       sodipodi:type="inkscape:persp3d" />
    <inkscape:perspective
       id="perspective4119"
       inkscape:persp3d-origin="0.5 : 0.33333333 : 1"
       inkscape:vp_z="1 : 0.5 : 1"
       inkscape:vp_y="0 : 1000 : 0"
       inkscape:vp_x="0 : 0.5 : 1"
       sodipodi:type="inkscape:persp3d" />
    <inkscape:perspective
       id="perspective4162"
       inkscape:persp3d-origin="0.5 : 0.33333333 : 1"
       inkscape:vp_z="1 : 0.5 : 1"
       inkscape:vp_y="0 : 1000 : 0"
       inkscape:vp_x="0 : 0.5 : 1"
       sodipodi:type="inkscape:persp3d" />
    <inkscape:perspective
       id="perspective3698"
       inkscape:persp3d-origin="0.5 : 0.33333333 : 1"
       inkscape:vp_z="1 : 0.5 : 1"
       inkscape:vp_y="0 : 1000 : 0"
       inkscape:vp_x="0 : 0.5 : 1"
       sodipodi:type="inkscape:persp3d" />
  </defs>
  <sodipodi:namedview
     id="base"
     pagecolor="#ffffff"
     bordercolor="#666666"
     borderopacity="1.0"
     inkscape:pageopacity="0.0"
     inkscape:pageshadow="2"
     inkscape:zoom="1.4349192"
     inkscape:cx="328.37903"
     inkscape:cy="469.56615"
     inkscape:document-units="px"
     inkscape:current-layer="layer2"
     showgrid="true"
     inkscape:window-width="1280"
     inkscape:window-height="738"
     inkscape:window-x="-8"
     inkscape:window-y="-8"
     showguides="true"
     inkscape:guide-bbox="true"
     gridtolerance="5"
     guidetolerance="5"
     inkscape:snap-global="true"
     inkscape:window-maximized="1"
     inkscape:snap-grids="true">
    <inkscape:grid
       type="xygrid"
       id="grid2417"
       visible="true"
       enabled="true"
       spacingx="10px"
       spacingy="10px" />
  </sodipodi:namedview>
  <metadata
     id="metadata3426">
    <rdf:RDF>
      <cc:Work
         rdf:about="">
        <dc:format>image/svg+xml</dc:format>
        <dc:type
           rdf:resource="http://purl.org/dc/dcmitype/StillImage" />
        <dc:title />
      </cc:Work>
    </rdf:RDF>
  </metadata>
  <g
     inkscape:label="Capa 1"
     inkscape:groupmode="layer"
     id="layer1"
     transform="translate(-84.9002,-136.648)"
     sodipodi:insensitive="true">
    <path
       style="fill:#008f4c;fill-opacity:1;fill-rule:evenodd;stroke:#000000;stroke-width:1;stroke-linecap:square;stroke-linejoin:miter;stroke-miterlimit:4;stroke-opacity:1;stroke-dasharray:none;stroke-dashoffset:0;marker:none;visibility:visible;display:inline;overflow:visible"
       d="m 684.50083,137.24686 -598.327785,0.599 c 0.367028,139.56158 0.441528,279.18705 -0.673877,418.70217 0,165.32446 134.176372,299.50083 299.500832,299.50083 165.32446,0 299.50083,-134.17637 299.50083,-299.50083 l 0,-419.30117 z"
       id="path11282"
       sodipodi:nodetypes="cccscc"
       inkscape:connector-curvature="0" />
    <path
       style="fill:#e3e4e5;fill-opacity:1;stroke:#000000;stroke-width:1;stroke-linecap:round;stroke-linejoin:miter;stroke-miterlimit:4;stroke-opacity:1;stroke-dasharray:none"
       d="m 184.99999,236.64786 0,320 c 0,110.4 89.6,200 200,200 110.4,0 200,-89.6 200,-200 l 0,-320 -400,0 z"
       id="rect2399"
       inkscape:connector-curvature="0" />
  </g>
  <g
     inkscape:groupmode="layer"
     id="layer2"
     inkscape:label="Mueble"
     transform="translate(39.3856,47.1429)">
    <g
       id="g3057"
       transform="translate(0,20)">
      <path
         inkscape:connector-curvature="0"
         sodipodi:nodetypes="ccccsccccccccccccccc"
         transform="translate(-39.3856,-47.1429)"
         id="path3702"
         d="m 240,270 c -3.1765,35.82311 -18.92831,65.24623 -50,90 6.66667,5.15272 13.33333,10.30544 20,15.45816 C 240,350 251.3355,342.67514 270,310 c -2.34959,32.67676 -4.31941,22.80139 -10.74014,44.22041 C 249.84139,385.63965 240.22234,394.76358 230,412 c 6.66667,3.33333 6.67211,10.36735 13.33878,13.70068 C 256.07612,414.06084 276.19527,393.63984 280,382 c 6.66667,21.63984 10,41.10358 10,86 6.66667,0 13.33333,0 20,0 0,-30 3.33333,-64.36016 10,-86 10,11.63984 35.18095,32.80097 45.18095,44.44081 C 371.84762,423.10748 373.33333,415.33333 380,412 c -32.51874,-35.04623 -49.06027,-47.08533 -50,-92 14.89978,23.80698 35.23409,40.00561 60,50 6.66667,-6.66667 8.89252,-10.37279 15.55919,-17.03946 C 364.42935,341.7443 364.55042,304.31904 360,270 c -3.33333,-20 -6.66667,-40 -10,-60 -33.33333,0 -66.66667,0 -100,0 -3.33333,20 -6.66667,40 -10,60 z"
         style="fill:#0071bc;fill-opacity:1;stroke:#000000;stroke-width:1px;stroke-linecap:butt;stroke-linejoin:miter;stroke-opacity:1" />
      <path
         inkscape:connector-curvature="0"
         id="path3769"
         d="m 248.25,161.9375 a 0.46694778,0.46694778 0 0 0 -0.28125,0.28125 c -5.20606,11.21551 -10.27214,22.70006 -9.65625,33.84375 0.31655,5.72761 3.25182,11.26549 6.03125,16.71875 2.77943,5.45326 5.39696,10.80858 5.25,16.0625 -0.15124,5.40715 -2.41443,10.80573 -4.65625,16.25 -2.24182,5.44427 -4.46875,10.93909 -4.46875,16.59375 0,6.08071 2.62719,10.62547 5.125,15.125 2.49781,4.49953 4.87554,8.94011 4.5625,15.03125 -0.54679,10.63937 -4.91277,21.09409 -7.71875,28.125 a 0.47005028,0.47005028 0 1 0 0.875,0.34375 c 2.80014,-7.01627 7.22304,-17.54468 7.78125,-28.40625 0.32665,-6.35577 -2.15237,-11.05202 -4.65625,-15.5625 -2.50388,-4.51048 -5.03125,-8.84577 -5.03125,-14.65625 0,-5.40676 2.16588,-10.80926 4.40625,-16.25 2.24037,-5.44074 4.56081,-10.91598 4.71875,-16.5625 0.156,-5.57745 -2.56047,-11.07044 -5.34375,-16.53125 -2.78328,-5.46081 -5.63685,-10.90386 -5.9375,-16.34375 -0.59829,-10.82519 4.3621,-22.20292 9.5625,-33.40625 A 0.46694778,0.46694778 0 0 0 248.25,161.9375 z"
         style="font-size:medium;font-style:normal;font-variant:normal;font-weight:normal;font-stretch:normal;text-indent:0;text-align:start;text-decoration:none;line-height:normal;letter-spacing:normal;word-spacing:normal;text-transform:none;direction:ltr;block-progression:tb;writing-mode:lr-tb;text-anchor:start;baseline-shift:baseline;color:#000000;fill:#000000;fill-opacity:1;stroke:none;stroke-width:0.93380219;marker:none;visibility:visible;display:inline;overflow:visible;enable-background:accumulate;font-family:Sans;-inkscape-font-specification:Sans" />
      <path
         inkscape:connector-curvature="0"
         id="path3767"
         d="m 266.03125,157.6875 a 4.669478,4.669478 0 0 0 -3.875,2.75 c -5.23152,11.27037 -10.7576,23.26684 -10.0625,35.84375 0.38811,7.02233 3.73789,12.98698 6.5,18.40625 2.76211,5.41927 4.88748,10.2332 4.78125,14.03125 -0.12111,4.33002 -2.06413,9.32109 -4.3125,14.78125 -2.24837,5.46016 -4.8125,11.41725 -4.8125,18.1875 0,7.29672 3.21704,12.70598 5.6875,17.15625 2.47046,4.45027 4.28309,7.88094 4.03125,12.78125 -0.4954,9.6395 -4.60521,19.68441 -7.4375,26.78125 a 4.6772022,4.6772022 0 1 0 8.6875,3.46875 c 2.77383,-6.95034 7.4529,-17.88856 8.0625,-29.75 0.38785,-7.5466 -2.65627,-13.25276 -5.1875,-17.8125 -2.53123,-4.55974 -4.5,-8.03053 -4.5,-12.625 0,-4.29117 1.85992,-9.2314 4.09375,-14.65625 2.23383,-5.42485 4.84318,-11.3076 5.03125,-18.03125 0.19673,-7.03332 -3.0119,-13.06771 -5.8125,-18.5625 -2.8006,-5.49479 -5.23966,-10.51108 -5.46875,-14.65625 -0.51908,-9.39197 4.01256,-20.25778 9.1875,-31.40625 a 4.669478,4.669478 0 0 0 -4.59375,-6.6875 z"
         style="font-size:medium;font-style:normal;font-variant:normal;font-weight:normal;font-stretch:normal;text-indent:0;text-align:start;text-decoration:none;line-height:normal;letter-spacing:normal;word-spacing:normal;text-transform:none;direction:ltr;block-progression:tb;writing-mode:lr-tb;text-anchor:start;baseline-shift:baseline;color:#000000;fill:#000000;fill-opacity:1;stroke:none;stroke-width:9.33802223;marker:none;visibility:visible;display:inline;overflow:visible;enable-background:accumulate;font-family:Sans;-inkscape-font-specification:Sans" />
      <path
         inkscape:connector-curvature="0"
         id="path3771"
         d="m 282.8125,160.75 a 0.46694778,0.46694778 0 0 0 -0.34375,0.28125 c -5.20606,11.2155 -10.27214,22.70006 -9.65625,33.84375 0.31655,5.72761 3.25182,11.26549 6.03125,16.71875 2.77943,5.45326 5.39696,10.80858 5.25,16.0625 -0.15124,5.40716 -2.38318,10.80573 -4.625,16.25 -2.24182,5.44427 -4.5,10.93909 -4.5,16.59375 0,6.08071 2.65844,10.62547 5.15625,15.125 2.49781,4.49953 4.84429,8.94011 4.53125,15.03125 -0.54679,10.63937 -4.91277,21.09409 -7.71875,28.125 a 0.47005028,0.47005028 0 1 0 0.875,0.34375 c 2.80014,-7.01627 7.22304,-17.54468 7.78125,-28.40625 0.32665,-6.35577 -2.15237,-11.05202 -4.65625,-15.5625 -2.50388,-4.51048 -5.03125,-8.84577 -5.03125,-14.65625 0,-5.40676 2.16588,-10.77801 4.40625,-16.21875 2.24037,-5.44074 4.56081,-10.94723 4.71875,-16.59375 0.156,-5.57744 -2.56047,-11.03919 -5.34375,-16.5 -2.78328,-5.46081 -5.63685,-10.93511 -5.9375,-16.375 -0.59829,-10.82519 4.3621,-22.20293 9.5625,-33.40625 a 0.46694778,0.46694778 0 0 0 -0.5,-0.65625 z"
         style="font-size:medium;font-style:normal;font-variant:normal;font-weight:normal;font-stretch:normal;text-indent:0;text-align:start;text-decoration:none;line-height:normal;letter-spacing:normal;word-spacing:normal;text-transform:none;direction:ltr;block-progression:tb;writing-mode:lr-tb;text-anchor:start;baseline-shift:baseline;color:#000000;fill:#000000;fill-opacity:1;stroke:none;stroke-width:0.93380219;marker:none;visibility:visible;display:inline;overflow:visible;enable-background:accumulate;font-family:Sans;-inkscape-font-specification:Sans" />
      <g
         transform="matrix(0.950232,0,0,0.950232,-0.557711,11.2856)"
         id="g3690">
        <path
           inkscape:connector-curvature="0"
           style="fill:#eac102;fill-opacity:1;stroke:#000000;stroke-width:1px;stroke-linecap:butt;stroke-linejoin:miter;stroke-opacity:1"
           d="m 220.18929,223.39816 8.8441,-40.54106 c 1.00475,-4.60573 5.28595,-10 10,-10 l 73.16202,0 c 4.71404,0 9.02908,5.38702 10,10 l 8.41899,40 0,0 30,0 -8.41899,-40 c -3.88367,-18.4519 -21.14382,-40 -40,-40 l -73.16202,0 c -18.85618,0 -36.11633,21.5481 -40,40 l -8.41899,40 29.57489,0.54106 z"
           id="path2916"
           sodipodi:nodetypes="csssscccsssscc" />
        <path
           sodipodi:type="arc"
           style="fill:#eac102;fill-opacity:1;stroke:#000000;stroke-width:1;stroke-miterlimit:4;stroke-opacity:1;stroke-dasharray:none"
           id="path3949"
           sodipodi:cx="210"
           sodipodi:cy="250"
           sodipodi:rx="30"
           sodipodi:ry="30"
           d="m 239.95352,248.33059 c 0.92198,16.54287 -11.74124,30.70094 -28.28411,31.62293 -16.54287,0.92198 -30.70094,-11.74124 -31.62293,-28.28411 C 180.0155,251.11348 180,250.55679 180,250"
           transform="translate(-19.3391,-27.1429)"
           sodipodi:start="6.2275097"
           sodipodi:end="9.424778"
           sodipodi:open="true" />
        <path
           sodipodi:type="arc"
           style="fill:#eac102;fill-opacity:1;stroke:#000000;stroke-width:1;stroke-miterlimit:4;stroke-opacity:1;stroke-dasharray:none"
           id="path3945"
           sodipodi:cx="200"
           sodipodi:cy="250"
           sodipodi:rx="20"
           sodipodi:ry="20"
           d="m 180,250 c 0,-11.0457 8.95431,-20 20,-20 11.0457,0 20,8.95431 20,20"
           transform="translate(-19.3391,-27.1429)"
           sodipodi:start="3.1415927"
           sodipodi:end="6.2831853"
           sodipodi:open="true" />
        <path
           sodipodi:type="arc"
           style="fill:#eac102;fill-opacity:1;stroke:#000000;stroke-width:1;stroke-miterlimit:4;stroke-opacity:1;stroke-dasharray:none"
           id="path3947"
           sodipodi:cx="210"
           sodipodi:cy="250"
           sodipodi:rx="10"
           sodipodi:ry="10"
           d="m 220,250 c 0,5.52285 -4.47715,10 -10,10 -5.52285,0 -10,-4.47715 -10,-10 0,0 0,0 0,0"
           transform="translate(-19.3391,-27.1429)"
           sodipodi:start="0"
           sodipodi:end="3.1415927"
           sodipodi:open="true" />
        <path
           inkscape:connector-curvature="0"
           style="fill:#eac102;fill-opacity:1;stroke:#000000;stroke-width:1px;stroke-linecap:butt;stroke-linejoin:miter;stroke-opacity:1"
           d="m 220.66088,192.8571 0,0"
           id="path3954"
           sodipodi:nodetypes="cc" />
        <path
           sodipodi:open="true"
           sodipodi:end="9.424778"
           sodipodi:start="6.2275097"
           transform="matrix(-1.00155,0,0,1.00155,570.94,-27.5461)"
           d="m 239.95352,248.33059 c 0.92198,16.54287 -11.74124,30.70094 -28.28411,31.62293 -16.54287,0.92198 -30.70094,-11.74124 -31.62293,-28.28411 C 180.0155,251.11348 180,250.55679 180,250"
           sodipodi:ry="30"
           sodipodi:rx="30"
           sodipodi:cy="250"
           sodipodi:cx="210"
           id="path4007"
           style="fill:#eac102;fill-opacity:1;stroke:#000000;stroke-width:1;stroke-miterlimit:4;stroke-opacity:1;stroke-dasharray:none"
           sodipodi:type="arc" />
        <path
           sodipodi:open="true"
           sodipodi:end="6.2831853"
           sodipodi:start="3.1415927"
           transform="matrix(-1.00155,0,0,1.00155,570.94,-27.5461)"
           d="m 180,250 c 0,-11.0457 8.95431,-20 20,-20 11.0457,0 20,8.95431 20,20"
           sodipodi:ry="20"
           sodipodi:rx="20"
           sodipodi:cy="250"
           sodipodi:cx="200"
           id="path4009"
           style="fill:#eac102;fill-opacity:1;stroke:#000000;stroke-width:1;stroke-miterlimit:4;stroke-opacity:1;stroke-dasharray:none"
           sodipodi:type="arc" />
        <path
           sodipodi:open="true"
           sodipodi:end="3.1415927"
           sodipodi:start="0"
           transform="matrix(-1.00155,0,0,1.00155,570.94,-27.5461)"
           d="m 220,250 c 0,5.52285 -4.47715,10 -10,10 -5.52285,0 -10,-4.47715 -10,-10 0,0 0,0 0,0"
           sodipodi:ry="10"
           sodipodi:rx="10"
           sodipodi:cy="250"
           sodipodi:cx="210"
           id="path4011"
           style="fill:#eac102;fill-opacity:1;stroke:#000000;stroke-width:1;stroke-miterlimit:4;stroke-opacity:1;stroke-dasharray:none"
           sodipodi:type="arc" />
      </g>
      <path
         inkscape:connector-curvature="0"
         sodipodi:nodetypes="cc"
         transform="translate(-39.3856,-47.1429)"
         id="path3753"
         d="m 207.51693,363.73199 c 23.32346,-16.94401 32.39224,-36.73895 44.0744,-56.01121"
         style="fill:none;stroke:#000000;stroke-width:1px;stroke-linecap:butt;stroke-linejoin:miter;stroke-opacity:1" />
      <path
         inkscape:connector-curvature="0"
         sodipodi:nodetypes="cc"
         id="path3755"
         d="m 194.75961,373.81966 c 15.31321,-17.44372 32.58315,-34.39825 38.5651,-54.17478"
         style="fill:none;stroke:#000000;stroke-width:1px;stroke-linecap:butt;stroke-linejoin:miter;stroke-opacity:1" />
      <path
         inkscape:connector-curvature="0"
         id="path3757"
         d="m 261.78942,349.02781 -0.91822,70.70268"
         style="fill:none;stroke:#000000;stroke-width:1px;stroke-linecap:butt;stroke-linejoin:miter;stroke-opacity:1" />
      <path
         inkscape:connector-curvature="0"
         sodipodi:nodetypes="cc"
         id="path3759"
         d="m 301.27273,333.41813 36.72866,43.15618"
         style="fill:none;stroke:#000000;stroke-width:1px;stroke-linecap:butt;stroke-linejoin:miter;stroke-opacity:1" />
      <path
         inkscape:connector-curvature="0"
         sodipodi:nodetypes="cc"
         transform="translate(-39.3856,-47.1429)"
         id="path3761"
         d="m 352.59514,321.49403 c 9.09381,13.82959 15.76601,28.00513 41.31975,39.48331"
         style="fill:none;stroke:#000000;stroke-width:1px;stroke-linecap:butt;stroke-linejoin:miter;stroke-opacity:1" />
      <g
         style="stroke:#000000;stroke-width:0.81242126;stroke-miterlimit:4;stroke-opacity:1;stroke-dasharray:none"
         transform="matrix(1.23076,-0.0175102,0.0175102,1.23076,-321.491,-122.552)"
         id="g4211">
        <path
           sodipodi:type="arc"
           style="fill:#eac102;fill-opacity:1;stroke:#000000;stroke-width:0.81242126;stroke-miterlimit:4;stroke-opacity:1;stroke-dasharray:none"
           id="path4207"
           sodipodi:cx="383.97296"
           sodipodi:cy="368.17508"
           sodipodi:rx="15.057763"
           sodipodi:ry="15.057763"
           d="m 399.03072,368.17508 c 0,8.31617 -6.74159,15.05776 -15.05776,15.05776 -8.31617,0 -15.05776,-6.74159 -15.05776,-15.05776 0,-8.31617 6.74159,-15.05776 15.05776,-15.05776 8.31617,0 15.05776,6.74159 15.05776,15.05776 z" />
        <path
           d="m 399.03072,368.17508 c 0,8.31617 -6.74159,15.05776 -15.05776,15.05776 -8.31617,0 -15.05776,-6.74159 -15.05776,-15.05776 0,-8.31617 6.74159,-15.05776 15.05776,-15.05776 8.31617,0 15.05776,6.74159 15.05776,15.05776 z"
           sodipodi:ry="15.057763"
           sodipodi:rx="15.057763"
           sodipodi:cy="368.17508"
           sodipodi:cx="383.97296"
           id="path4209"
           style="fill:#eac102;fill-opacity:1;stroke:#000000;stroke-width:1.78356946;stroke-miterlimit:4;stroke-opacity:1;stroke-dasharray:none"
           sodipodi:type="arc"
           transform="matrix(0.455503,0,0,0.455503,209.072,200.47)" />
      </g>
      <g
         id="g4182"
         style="stroke:#000000;stroke-width:0.83284289;stroke-miterlimit:4;stroke-opacity:1;stroke-dasharray:none"
         transform="matrix(-0.611056,1.39485,-1.39485,-0.611056,1147.98,23.3199)">
        <path
           inkscape:connector-curvature="0"
           sodipodi:nodetypes="cccsc"
           id="path4184"
           d="m 416.09321,399.35423 11.3323,5.00069 c 19.97975,-15.99887 12.49345,-23.06535 14.10538,-39.06422 -19.91906,10.4359 -22.90061,10.36981 -24.91577,27.00436 -0.26282,2.16953 -0.43172,4.51213 -0.52191,7.05917 z"
           style="fill:#eac102;fill-opacity:1;fill-rule:evenodd;stroke:#000000;stroke-width:0.83284289;stroke-linecap:butt;stroke-linejoin:miter;stroke-miterlimit:4;stroke-opacity:1;stroke-dasharray:none" />
        <path
           inkscape:connector-curvature="0"
           sodipodi:nodetypes="ccc"
           id="path4186"
           d="m 417.98185,399.64988 c 1.97979,-12.36875 9.08189,-19.61519 17.56964,-25.47598 1.43223,9.87326 -0.87003,19.58415 -10.19039,28.98991"
           style="fill:none;stroke:#000000;stroke-width:0.83284289;stroke-linecap:butt;stroke-linejoin:miter;stroke-miterlimit:4;stroke-opacity:1;stroke-dasharray:none" />
      </g>
      <g
         id="g3712"
         transform="matrix(1.23076,-0.0175102,0.0175102,1.23076,-113.99,-129.036)"
         style="stroke:#000000;stroke-width:0.81242126;stroke-miterlimit:4;stroke-opacity:1;stroke-dasharray:none">
        <path
           d="m 399.03072,368.17508 c 0,8.31617 -6.74159,15.05776 -15.05776,15.05776 -8.31617,0 -15.05776,-6.74159 -15.05776,-15.05776 0,-8.31617 6.74159,-15.05776 15.05776,-15.05776 8.31617,0 15.05776,6.74159 15.05776,15.05776 z"
           sodipodi:ry="15.057763"
           sodipodi:rx="15.057763"
           sodipodi:cy="368.17508"
           sodipodi:cx="383.97296"
           id="path3714"
           style="fill:#eac102;fill-opacity:1;stroke:#000000;stroke-width:0.81242126;stroke-miterlimit:4;stroke-opacity:1;stroke-dasharray:none"
           sodipodi:type="arc" />
        <path
           transform="matrix(0.455503,0,0,0.455503,209.072,200.47)"
           sodipodi:type="arc"
           style="fill:#eac102;fill-opacity:1;stroke:#000000;stroke-width:1.78356946;stroke-miterlimit:4;stroke-opacity:1;stroke-dasharray:none"
           id="path3716"
           sodipodi:cx="383.97296"
           sodipodi:cy="368.17508"
           sodipodi:rx="15.057763"
           sodipodi:ry="15.057763"
           d="m 399.03072,368.17508 c 0,8.31617 -6.74159,15.05776 -15.05776,15.05776 -8.31617,0 -15.05776,-6.74159 -15.05776,-15.05776 0,-8.31617 6.74159,-15.05776 15.05776,-15.05776 8.31617,0 15.05776,6.74159 15.05776,15.05776 z" />
      </g>
      <g
         style="stroke:#000000;stroke-width:0.81242126;stroke-miterlimit:4;stroke-opacity:1;stroke-dasharray:none"
         transform="matrix(1.23076,-0.0175102,0.0175102,1.23076,-219.686,-18.3253)"
         id="g3718">
        <path
           sodipodi:type="arc"
           style="fill:#eac102;fill-opacity:1;stroke:#000000;stroke-width:0.81242126;stroke-miterlimit:4;stroke-opacity:1;stroke-dasharray:none"
           id="path3720"
           sodipodi:cx="383.97296"
           sodipodi:cy="368.17508"
           sodipodi:rx="15.057763"
           sodipodi:ry="15.057763"
           d="m 399.03072,368.17508 c 0,8.31617 -6.74159,15.05776 -15.05776,15.05776 -8.31617,0 -15.05776,-6.74159 -15.05776,-15.05776 0,-8.31617 6.74159,-15.05776 15.05776,-15.05776 8.31617,0 15.05776,6.74159 15.05776,15.05776 z" />
        <path
           d="m 399.03072,368.17508 c 0,8.31617 -6.74159,15.05776 -15.05776,15.05776 -8.31617,0 -15.05776,-6.74159 -15.05776,-15.05776 0,-8.31617 6.74159,-15.05776 15.05776,-15.05776 8.31617,0 15.05776,6.74159 15.05776,15.05776 z"
           sodipodi:ry="15.057763"
           sodipodi:rx="15.057763"
           sodipodi:cy="368.17508"
           sodipodi:cx="383.97296"
           id="path3722"
           style="fill:#eac102;fill-opacity:1;stroke:#000000;stroke-width:1.78356946;stroke-miterlimit:4;stroke-opacity:1;stroke-dasharray:none"
           sodipodi:type="arc"
           transform="matrix(0.455503,0,0,0.455503,209.072,200.47)" />
      </g>
      <g
         transform="matrix(0.621344,1.41834,1.41834,-0.621344,-630.528,16.3699)"
         style="stroke:#000000;stroke-width:0.83284289;stroke-miterlimit:4;stroke-opacity:1;stroke-dasharray:none"
         id="g3747">
        <path
           inkscape:connector-curvature="0"
           style="fill:#eac102;fill-opacity:1;fill-rule:evenodd;stroke:#000000;stroke-width:0.83284289;stroke-linecap:butt;stroke-linejoin:miter;stroke-miterlimit:4;stroke-opacity:1;stroke-dasharray:none"
           d="m 416.09321,399.35423 11.3323,5.00069 c 19.97975,-15.99887 12.49345,-23.06535 14.10538,-39.06422 -19.91906,10.4359 -22.90061,10.36981 -24.91577,27.00436 -0.26282,2.16953 -0.43172,4.51213 -0.52191,7.05917 z"
           id="path3749"
           sodipodi:nodetypes="cccsc" />
        <path
           inkscape:connector-curvature="0"
           style="fill:none;stroke:#000000;stroke-width:0.83284289;stroke-linecap:butt;stroke-linejoin:miter;stroke-miterlimit:4;stroke-opacity:1;stroke-dasharray:none"
           d="m 417.98185,399.64988 c 1.97979,-12.36875 9.08189,-19.61519 17.56964,-25.47598 1.43223,9.87326 -0.87003,19.58415 -10.19039,28.98991"
           id="path3751"
           sodipodi:nodetypes="ccc" />
      </g>
    </g>
    <g
       style="stroke:#000000;stroke-width:0.81242126;stroke-miterlimit:4;stroke-opacity:1;stroke-dasharray:none"
       transform="matrix(1.3084485,-0.01839559,0.01861549,1.2929927,-248.35051,-335.85018)"
       id="g3051">
      <path
         sodipodi:type="arc"
         style="fill:#eac102;fill-opacity:1;stroke:#000000;stroke-width:0.81242126;stroke-miterlimit:4;stroke-opacity:1;stroke-dasharray:none"
         id="path3053"
         sodipodi:cx="383.97296"
         sodipodi:cy="368.17508"
         sodipodi:rx="15.057763"
         sodipodi:ry="15.057763"
         d="m 399.03072,368.17508 c 0,8.31617 -6.74159,15.05776 -15.05776,15.05776 -8.31617,0 -15.05776,-6.74159 -15.05776,-15.05776 0,-8.31617 6.74159,-15.05776 15.05776,-15.05776 8.31617,0 15.05776,6.74159 15.05776,15.05776 z" />
      <path
         d="m 399.03072,368.17508 c 0,8.31617 -6.74159,15.05776 -15.05776,15.05776 -8.31617,0 -15.05776,-6.74159 -15.05776,-15.05776 0,-8.31617 6.74159,-15.05776 15.05776,-15.05776 8.31617,0 15.05776,6.74159 15.05776,15.05776 z"
         sodipodi:ry="15.057763"
         sodipodi:rx="15.057763"
         sodipodi:cy="368.17508"
         sodipodi:cx="383.97296"
         id="path3055"
         style="fill:#eac102;fill-opacity:1;stroke:#000000;stroke-width:1.78356946;stroke-miterlimit:4;stroke-opacity:1;stroke-dasharray:none"
         sodipodi:type="arc"
         transform="matrix(0.455503,0,0,0.455503,209.072,200.47)" />
    </g>
    <g
       id="g3116"
       transform="matrix(1.3084485,-0.01839559,0.01861549,1.2929927,-288.35051,-335.85018)"
       style="stroke:#000000;stroke-width:0.81242126;stroke-miterlimit:4;stroke-opacity:1;stroke-dasharray:none">
      <path
         d="m 399.03072,368.17508 c 0,8.31617 -6.74159,15.05776 -15.05776,15.05776 -8.31617,0 -15.05776,-6.74159 -15.05776,-15.05776 0,-8.31617 6.74159,-15.05776 15.05776,-15.05776 8.31617,0 15.05776,6.74159 15.05776,15.05776 z"
         sodipodi:ry="15.057763"
         sodipodi:rx="15.057763"
         sodipodi:cy="368.17508"
         sodipodi:cx="383.97296"
         id="path3118"
         style="fill:#eac102;fill-opacity:1;stroke:#000000;stroke-width:0.81242126;stroke-miterlimit:4;stroke-opacity:1;stroke-dasharray:none"
         sodipodi:type="arc" />
      <path
         transform="matrix(0.455503,0,0,0.455503,209.072,200.47)"
         sodipodi:type="arc"
         style="fill:#eac102;fill-opacity:1;stroke:#000000;stroke-width:1.78356946;stroke-miterlimit:4;stroke-opacity:1;stroke-dasharray:none"
         id="path3120"
         sodipodi:cx="383.97296"
         sodipodi:cy="368.17508"
         sodipodi:rx="15.057763"
         sodipodi:ry="15.057763"
         d="m 399.03072,368.17508 c 0,8.31617 -6.74159,15.05776 -15.05776,15.05776 -8.31617,0 -15.05776,-6.74159 -15.05776,-15.05776 0,-8.31617 6.74159,-15.05776 15.05776,-15.05776 8.31617,0 15.05776,6.74159 15.05776,15.05776 z" />
    </g>
    <g
       style="stroke:#000000;stroke-width:0.81242126;stroke-miterlimit:4;stroke-opacity:1;stroke-dasharray:none"
       transform="matrix(1.3084485,-0.01839559,0.01861549,1.2929927,-328.35051,-335.85018)"
       id="g3122">
      <path
         sodipodi:type="arc"
         style="fill:#eac102;fill-opacity:1;stroke:#000000;stroke-width:0.81242126;stroke-miterlimit:4;stroke-opacity:1;stroke-dasharray:none"
         id="path3124"
         sodipodi:cx="383.97296"
         sodipodi:cy="368.17508"
         sodipodi:rx="15.057763"
         sodipodi:ry="15.057763"
         d="m 399.03072,368.17508 c 0,8.31617 -6.74159,15.05776 -15.05776,15.05776 -8.31617,0 -15.05776,-6.74159 -15.05776,-15.05776 0,-8.31617 6.74159,-15.05776 15.05776,-15.05776 8.31617,0 15.05776,6.74159 15.05776,15.05776 z" />
      <path
         d="m 399.03072,368.17508 c 0,8.31617 -6.74159,15.05776 -15.05776,15.05776 -8.31617,0 -15.05776,-6.74159 -15.05776,-15.05776 0,-8.31617 6.74159,-15.05776 15.05776,-15.05776 8.31617,0 15.05776,6.74159 15.05776,15.05776 z"
         sodipodi:ry="15.057763"
         sodipodi:rx="15.057763"
         sodipodi:cy="368.17508"
         sodipodi:cx="383.97296"
         id="path3126"
         style="fill:#eac102;fill-opacity:1;stroke:#000000;stroke-width:1.78356946;stroke-miterlimit:4;stroke-opacity:1;stroke-dasharray:none"
         sodipodi:type="arc"
         transform="matrix(0.455503,0,0,0.455503,209.072,200.47)" />
    </g>
    <g
       id="g3128"
       transform="matrix(1.3084485,-0.01839559,0.01861549,1.2929927,-368.35051,-295.85018)"
       style="stroke:#000000;stroke-width:0.81242126;stroke-miterlimit:4;stroke-opacity:1;stroke-dasharray:none">
      <path
         d="m 399.03072,368.17508 c 0,8.31617 -6.74159,15.05776 -15.05776,15.05776 -8.31617,0 -15.05776,-6.74159 -15.05776,-15.05776 0,-8.31617 6.74159,-15.05776 15.05776,-15.05776 8.31617,0 15.05776,6.74159 15.05776,15.05776 z"
         sodipodi:ry="15.057763"
         sodipodi:rx="15.057763"
         sodipodi:cy="368.17508"
         sodipodi:cx="383.97296"
         id="path3130"
         style="fill:#eac102;fill-opacity:1;stroke:#000000;stroke-width:0.81242126;stroke-miterlimit:4;stroke-opacity:1;stroke-dasharray:none"
         sodipodi:type="arc" />
      <path
         transform="matrix(0.455503,0,0,0.455503,209.072,200.47)"
         sodipodi:type="arc"
         style="fill:#eac102;fill-opacity:1;stroke:#000000;stroke-width:1.78356946;stroke-miterlimit:4;stroke-opacity:1;stroke-dasharray:none"
         id="path3132"
         sodipodi:cx="383.97296"
         sodipodi:cy="368.17508"
         sodipodi:rx="15.057763"
         sodipodi:ry="15.057763"
         d="m 399.03072,368.17508 c 0,8.31617 -6.74159,15.05776 -15.05776,15.05776 -8.31617,0 -15.05776,-6.74159 -15.05776,-15.05776 0,-8.31617 6.74159,-15.05776 15.05776,-15.05776 8.31617,0 15.05776,6.74159 15.05776,15.05776 z" />
    </g>
    <g
       id="g3134"
       transform="matrix(1.3084485,-0.01839559,0.01861549,1.2929927,-208.35051,-335.85018)"
       style="stroke:#000000;stroke-width:0.81242126;stroke-miterlimit:4;stroke-opacity:1;stroke-dasharray:none">
      <path
         d="m 399.03072,368.17508 c 0,8.31617 -6.74159,15.05776 -15.05776,15.05776 -8.31617,0 -15.05776,-6.74159 -15.05776,-15.05776 0,-8.31617 6.74159,-15.05776 15.05776,-15.05776 8.31617,0 15.05776,6.74159 15.05776,15.05776 z"
         sodipodi:ry="15.057763"
         sodipodi:rx="15.057763"
         sodipodi:cy="368.17508"
         sodipodi:cx="383.97296"
         id="path3136"
         style="fill:#eac102;fill-opacity:1;stroke:#000000;stroke-width:0.81242126;stroke-miterlimit:4;stroke-opacity:1;stroke-dasharray:none"
         sodipodi:type="arc" />
      <path
         transform="matrix(0.455503,0,0,0.455503,209.072,200.47)"
         sodipodi:type="arc"
         style="fill:#eac102;fill-opacity:1;stroke:#000000;stroke-width:1.78356946;stroke-miterlimit:4;stroke-opacity:1;stroke-dasharray:none"
         id="path3138"
         sodipodi:cx="383.97296"
         sodipodi:cy="368.17508"
         sodipodi:rx="15.057763"
         sodipodi:ry="15.057763"
         d="m 399.03072,368.17508 c 0,8.31617 -6.74159,15.05776 -15.05776,15.05776 -8.31617,0 -15.05776,-6.74159 -15.05776,-15.05776 0,-8.31617 6.74159,-15.05776 15.05776,-15.05776 8.31617,0 15.05776,6.74159 15.05776,15.05776 z" />
    </g>
    <g
       style="stroke:#000000;stroke-width:0.81242126;stroke-miterlimit:4;stroke-opacity:1;stroke-dasharray:none"
       transform="matrix(1.3084485,-0.01839559,0.01861549,1.2929927,-168.35051,-335.85018)"
       id="g3140">
      <path
         sodipodi:type="arc"
         style="fill:#eac102;fill-opacity:1;stroke:#000000;stroke-width:0.81242126;stroke-miterlimit:4;stroke-opacity:1;stroke-dasharray:none"
         id="path3142"
         sodipodi:cx="383.97296"
         sodipodi:cy="368.17508"
         sodipodi:rx="15.057763"
         sodipodi:ry="15.057763"
         d="m 399.03072,368.17508 c 0,8.31617 -6.74159,15.05776 -15.05776,15.05776 -8.31617,0 -15.05776,-6.74159 -15.05776,-15.05776 0,-8.31617 6.74159,-15.05776 15.05776,-15.05776 8.31617,0 15.05776,6.74159 15.05776,15.05776 z" />
      <path
         d="m 399.03072,368.17508 c 0,8.31617 -6.74159,15.05776 -15.05776,15.05776 -8.31617,0 -15.05776,-6.74159 -15.05776,-15.05776 0,-8.31617 6.74159,-15.05776 15.05776,-15.05776 8.31617,0 15.05776,6.74159 15.05776,15.05776 z"
         sodipodi:ry="15.057763"
         sodipodi:rx="15.057763"
         sodipodi:cy="368.17508"
         sodipodi:cx="383.97296"
         id="path3144"
         style="fill:#eac102;fill-opacity:1;stroke:#000000;stroke-width:1.78356946;stroke-miterlimit:4;stroke-opacity:1;stroke-dasharray:none"
         sodipodi:type="arc"
         transform="matrix(0.455503,0,0,0.455503,209.072,200.47)" />
    </g>
    <g
       id="g3146"
       transform="matrix(1.3084485,-0.01839559,0.01861549,1.2929927,-128.35051,-295.85018)"
       style="stroke:#000000;stroke-width:0.81242126;stroke-miterlimit:4;stroke-opacity:1;stroke-dasharray:none">
      <path
         d="m 399.03072,368.17508 c 0,8.31617 -6.74159,15.05776 -15.05776,15.05776 -8.31617,0 -15.05776,-6.74159 -15.05776,-15.05776 0,-8.31617 6.74159,-15.05776 15.05776,-15.05776 8.31617,0 15.05776,6.74159 15.05776,15.05776 z"
         sodipodi:ry="15.057763"
         sodipodi:rx="15.057763"
         sodipodi:cy="368.17508"
         sodipodi:cx="383.97296"
         id="path3148"
         style="fill:#eac102;fill-opacity:1;stroke:#000000;stroke-width:0.81242126;stroke-miterlimit:4;stroke-opacity:1;stroke-dasharray:none"
         sodipodi:type="arc" />
      <path
         transform="matrix(0.455503,0,0,0.455503,209.072,200.47)"
         sodipodi:type="arc"
         style="fill:#eac102;fill-opacity:1;stroke:#000000;stroke-width:1.78356946;stroke-miterlimit:4;stroke-opacity:1;stroke-dasharray:none"
         id="path3150"
         sodipodi:cx="383.97296"
         sodipodi:cy="368.17508"
         sodipodi:rx="15.057763"
         sodipodi:ry="15.057763"
         d="m 399.03072,368.17508 c 0,8.31617 -6.74159,15.05776 -15.05776,15.05776 -8.31617,0 -15.05776,-6.74159 -15.05776,-15.05776 0,-8.31617 6.74159,-15.05776 15.05776,-15.05776 8.31617,0 15.05776,6.74159 15.05776,15.05776 z" />
    </g>
    <g
       id="g3058"
       transform="matrix(1.3084485,-0.01839559,0.01861549,1.2929927,-128.35051,-335.85018)"
       style="stroke:#000000;stroke-width:0.81242126;stroke-miterlimit:4;stroke-opacity:1;stroke-dasharray:none">
      <path
         d="m 399.03072,368.17508 c 0,8.31617 -6.74159,15.05776 -15.05776,15.05776 -8.31617,0 -15.05776,-6.74159 -15.05776,-15.05776 0,-8.31617 6.74159,-15.05776 15.05776,-15.05776 8.31617,0 15.05776,6.74159 15.05776,15.05776 z"
         sodipodi:ry="15.057763"
         sodipodi:rx="15.057763"
         sodipodi:cy="368.17508"
         sodipodi:cx="383.97296"
         id="path3060"
         style="fill:#eac102;fill-opacity:1;stroke:#000000;stroke-width:0.81242126;stroke-miterlimit:4;stroke-opacity:1;stroke-dasharray:none"
         sodipodi:type="arc" />
      <path
         transform="matrix(0.455503,0,0,0.455503,209.072,200.47)"
         sodipodi:type="arc"
         style="fill:#eac102;fill-opacity:1;stroke:#000000;stroke-width:1.78356946;stroke-miterlimit:4;stroke-opacity:1;stroke-dasharray:none"
         id="path3062"
         sodipodi:cx="383.97296"
         sodipodi:cy="368.17508"
         sodipodi:rx="15.057763"
         sodipodi:ry="15.057763"
         d="m 399.03072,368.17508 c 0,8.31617 -6.74159,15.05776 -15.05776,15.05776 -8.31617,0 -15.05776,-6.74159 -15.05776,-15.05776 0,-8.31617 6.74159,-15.05776 15.05776,-15.05776 8.31617,0 15.05776,6.74159 15.05776,15.05776 z" />
    </g>
    <g
       id="g3064"
       transform="matrix(1.3084485,-0.01839559,0.01861549,1.2929927,-368.35051,-335.85018)"
       style="stroke:#000000;stroke-width:0.81242126;stroke-miterlimit:4;stroke-opacity:1;stroke-dasharray:none">
      <path
         d="m 399.03072,368.17508 c 0,8.31617 -6.74159,15.05776 -15.05776,15.05776 -8.31617,0 -15.05776,-6.74159 -15.05776,-15.05776 0,-8.31617 6.74159,-15.05776 15.05776,-15.05776 8.31617,0 15.05776,6.74159 15.05776,15.05776 z"
         sodipodi:ry="15.057763"
         sodipodi:rx="15.057763"
         sodipodi:cy="368.17508"
         sodipodi:cx="383.97296"
         id="path3066"
         style="fill:#eac102;fill-opacity:1;stroke:#000000;stroke-width:0.81242126;stroke-miterlimit:4;stroke-opacity:1;stroke-dasharray:none"
         sodipodi:type="arc" />
      <path
         transform="matrix(0.455503,0,0,0.455503,209.072,200.47)"
         sodipodi:type="arc"
         style="fill:#eac102;fill-opacity:1;stroke:#000000;stroke-width:1.78356946;stroke-miterlimit:4;stroke-opacity:1;stroke-dasharray:none"
         id="path3068"
         sodipodi:cx="383.97296"
         sodipodi:cy="368.17508"
         sodipodi:rx="15.057763"
         sodipodi:ry="15.057763"
         d="m 399.03072,368.17508 c 0,8.31617 -6.74159,15.05776 -15.05776,15.05776 -8.31617,0 -15.05776,-6.74159 -15.05776,-15.05776 0,-8.31617 6.74159,-15.05776 15.05776,-15.05776 8.31617,0 15.05776,6.74159 15.05776,15.05776 z" />
    </g>
  </g>
  <g
     inkscape:groupmode="layer"
     id="layer3"
     inkscape:label="Filete">
    <path
       transform="translate(-84.9002, -136.648)"
       sodipodi:nodetypes="cccscc"
       id="path3177"
       d="M 684.50083,137.24686 L 86.173045,137.84586 C 86.540073,277.40744 86.614573,417.03291 85.499168,556.54803 C 85.499168,721.87249 219.67554,856.04886 385,856.04886 C 550.32446,856.04886 684.50083,721.87249 684.50083,556.54803 L 684.50083,137.24686 z"
       style="fill: none; fill-opacity: 1; fill-rule: evenodd; stroke: rgb(0, 0, 0); stroke-width: 3; stroke-linecap: square; stroke-linejoin: miter; marker: none; stroke-miterlimit: 4; stroke-dasharray: none; stroke-dashoffset: 0pt; stroke-opacity: 1; visibility: visible; display: inline; overflow: visible;" />
  </g>
</svg>
